<svg xmlns="http://www.w3.org/2000/svg" xmlns:xlink="http://www.w3.org/1999/xlink" viewBox="0 0 145 48" width="145" height="48">
  <svg x="0" y="0" width="45.93" height="48" viewBox="0 0 156 163" overflow="visible">
    <defs>
      <path d="M21.42,30.615 C7.31,44.724 0,61.841 0,83.373 C0,104.904 6.665,122.664 20.774,136.775 C34.884,150.884 52.645,162 74.177,162 C95.708,162 116.369,153.782 130.477,139.673 C144.587,125.563 154.113,104.904 154.113,83.373 C154.113,61.841 139.624,46.145 125.514,32.035 C111.405,17.925 95.708,0 74.177,0 C52.645,0 35.53,16.505 21.42,30.615 Z M27.274,90.928 C27.274,66.522 47.051,46.745 71.458,46.745 C95.849,46.745 115.64,66.522 115.64,90.928 C115.64,115.321 95.849,135.111 71.458,135.111 C47.051,135.111 27.274,115.321 27.274,90.928 Z" id="path-1"></path>
      <linearGradient x1="64%" y1="89%" x2="35%" y2="17%" id="linearGradient-3">
        <stop stop-color="#FF33FF" offset="0%"></stop>
        <stop stop-color="#00FFFF" offset="100%"></stop>
        <animate attributeName="x1" values="64%;30%;90%;64%" dur="4s" repeatCount="indefinite"></animate>
        <animate attributeName="y1" values="89%;75%;95%;89%" dur="3s" repeatCount="indefinite"></animate>
        <animate attributeName="x2" values="35%;5%;65%;35%" dur="3.5s" repeatCount="indefinite"></animate>
        <animate attributeName="y2" values="17%;5%;30%;17%" dur="4.5s" repeatCount="indefinite"></animate>
      </linearGradient>
    </defs>
    <g id="Page-1" stroke="none" stroke-width="1" fill="none" fill-rule="evenodd">
      <g id="AIQL-gradient-draft" transform="translate(-75, -182)">
        <g id="Group-7" transform="translate(75.965, 182.376)">
          <mask id="mask-2" fill="white">
            <use xlink:href="#path-1"></use>
          </mask>
          <g id="Clip-6"></g>
          <path d="M21.42,30.615 C7.31,44.724 0,61.841 0,83.373 C0,104.904 6.665,122.664 20.774,136.775 C34.884,150.884 52.645,162 74.177,162 C95.708,162 116.369,153.782 130.477,139.673 C144.587,125.563 154.113,104.904 154.113,83.373 C154.113,61.841 139.624,46.145 125.514,32.035 C111.405,17.925 95.708,0 74.177,0 C52.645,0 35.53,16.505 21.42,30.615 Z M27.274,90.928 C27.274,66.522 47.051,46.745 71.458,46.745 C95.849,46.745 115.64,66.522 115.64,90.928 C115.64,115.321 95.849,135.111 71.458,135.111 C47.051,135.111 27.274,115.321 27.274,90.928 Z" id="Fill-5" fill="url(#linearGradient-3)" mask="url(#mask-2)"></path>
        </g>
      </g>
    </g>
  </svg>
  <svg x="61.93" y="12" width="83.11" height="24" viewBox="0 0 187 54" overflow="visible">
    <g id="Page-1" stroke="none" stroke-width="1" fill="none" fill-rule="evenodd">
      <g id="AIQL-gradient-draft" transform="translate(-250, -239)">
        <g id="Group" transform="translate(250.4557, 239.177)">
          <path d="M64.1182778,0.804 C61.7522778,0.804 59.8272778,2.752 59.8272778,5.146 C59.8272778,7.541 61.7522778,9.488 64.1182778,9.488 C66.5122778,9.488 68.4602778,7.541 68.4602778,5.146 C68.4602778,2.752 66.5122778,0.804 64.1182778,0.804" id="Fill-8" fill="#FF33FF"></path>
          <path d="M20.0822778,1.421 L0.0772778216,49.711 C-0.195722178,50.369 0.288277822,51.094 1.00027782,51.094 L5.86427782,51.094 C6.27327782,51.094 6.64127782,50.844 6.79327782,50.464 L22.4282778,11.28 L24.2932778,6.605 L26.1452778,11.286 L41.6452778,50.462 C41.7962778,50.843 42.1652778,51.094 42.5752778,51.094 L47.8132778,51.094 C48.5242778,51.094 49.0082778,50.373 48.7392778,49.716 L29.0082778,1.425 C28.8552778,1.049 28.4892778,0.804 28.0832778,0.804 L21.0062778,0.804 C20.6012778,0.804 20.2372778,1.047 20.0822778,1.421" id="Fill-9" fill="#FFFFFF"></path>
          <path d="M67.3712778,50.094 L67.3712778,19.236 C67.3712778,18.684 66.9232778,18.236 66.3712778,18.236 L61.9162778,18.236 C61.3642778,18.236 60.9162778,18.684 60.9162778,19.236 L60.9162778,50.094 C60.9162778,50.646 61.3642778,51.094 61.9162778,51.094 L66.3712778,51.094 C66.9232778,51.094 67.3712778,50.646 67.3712778,50.094" id="Fill-10" fill="#FFFFFF"></path>
          <path d="M155.136278,0.804 L150.317278,0.804 C149.764278,0.804 149.317278,1.252 149.317278,1.804 L149.317278,50.094 C149.317278,50.646 149.764278,51.094 150.317278,51.094 L184.578278,51.094 C185.131278,51.094 185.578278,50.646 185.578278,50.094 L185.578278,46.15 C185.578278,45.597 185.131278,45.15 184.578278,45.15 L156.136278,45.15 L156.136278,1.804 C156.136278,1.252 155.688278,0.804 155.136278,0.804" id="Fill-11" fill="#FFFFFF"></path>
          <path d="M125.123278,52.847 L130.041278,52.847 C130.884278,52.847 131.349278,51.867 130.815278,51.214 L126.928278,46.465 L125.808278,45.096 L127.030278,43.816 C131.595278,39.041 134.109278,32.696 134.109278,25.949 C134.109278,11.398 122.582278,0 107.868278,0 C93.1942778,0 81.7002778,11.398 81.7002778,25.949 C81.7002778,40.5 93.1942778,51.898 107.868278,51.898 C109.148278,51.898 110.435278,51.804 111.713278,51.619 C112.489278,51.507 112.852278,50.594 112.355278,49.987 L108.993278,45.886 C108.993278,45.886 108.849278,45.647 108.332278,45.647 C108.162278,45.647 107.982278,45.661 107.868278,45.661 C97.1002778,45.661 88.6662778,37.003 88.6662778,25.949 C88.6662778,14.711 96.9212778,6.237 107.868278,6.237 C118.855278,6.237 127.141278,14.711 127.141278,25.949 C127.141278,30.449 125.783278,34.637 123.213278,38.06 L121.688278,40.091 L120.071278,38.131 L116.880278,34.262 C116.690278,34.032 116.407278,33.899 116.109278,33.899 L111.197278,33.899 C110.353278,33.899 109.888278,34.88 110.423278,35.533 L121.278278,48.771 L124.353278,52.485 C124.543278,52.714 124.825278,52.847 125.123278,52.847" id="Fill-12" fill="#FFFFFF"></path>
          <path d="M24.9942778,31.437 L10.7502778,31.437 L8.17427782,37.892 L26.7572778,37.892 C27.4632778,37.892 27.9462778,37.181 27.6872778,36.524 L25.9242778,32.069 C25.7732778,31.688 25.4042778,31.437 24.9942778,31.437" id="Fill-13" fill="#FFFFFF"></path>
        </g>
      </g>
    </g>
  </svg>
</svg>
